<svg id="i-spk-dvdr" xmlns="http://www.w3.org/2000/svg" width="43.827" height="6.971" viewBox="0 0 43.827 6.971">
  <line id="Line_5" data-name="Line 5" x2="43.827" transform="translate(0 3.5)" fill="none" stroke="#9a9a9a" stroke-width="1"/>
  <g id="Path_355" data-name="Path 355" transform="translate(18.079)" fill="#f7f2ee">
    <path d="M 3.485302686691284 6.470602512359619 C 1.839202642440796 6.470602512359619 0.5000026822090149 5.131402492523193 0.5000026822090149 3.485302686691284 C 0.5000026822090149 1.839202642440796 1.839202642440796 0.5000026822090149 3.485302686691284 0.5000026822090149 C 5.131402492523193 0.5000026822090149 6.470602512359619 1.839202642440796 6.470602512359619 3.485302686691284 C 6.470602512359619 5.131402492523193 5.131402492523193 6.470602512359619 3.485302686691284 6.470602512359619 Z" stroke="none"/>
    <path d="M 3.485302686691284 1.000002861022949 C 2.114902496337891 1.000002861022949 1.000002861022949 2.114902496337891 1.000002861022949 3.485302686691284 C 1.000002861022949 4.85570240020752 2.114902496337891 5.970602512359619 3.485302686691284 5.970602512359619 C 4.85570240020752 5.970602512359619 5.970602512359619 4.85570240020752 5.970602512359619 3.485302686691284 C 5.970602512359619 2.114902496337891 4.85570240020752 1.000002861022949 3.485302686691284 1.000002861022949 M 3.485302686691284 2.86102294921875e-06 C 5.410182952880859 2.86102294921875e-06 6.970602512359619 1.560422897338867 6.970602512359619 3.485302686691284 C 6.970602512359619 5.410182952880859 5.410182952880859 6.970602512359619 3.485302686691284 6.970602512359619 C 1.560422897338867 6.970602512359619 2.86102294921875e-06 5.410182952880859 2.86102294921875e-06 3.485302686691284 C 2.86102294921875e-06 1.560422897338867 1.560422897338867 2.86102294921875e-06 3.485302686691284 2.86102294921875e-06 Z" stroke="none" fill="#9a9a9a"/>
  </g>
</svg>
